<svg width="14" height="14" viewBox="0 0 14 14" fill="none" xmlns="http://www.w3.org/2000/svg">
<path d="M5.44807 11.0341C5.68783 10.8971 5.77113 10.5917 5.63412 10.3519C5.49712 10.1122 5.19169 10.0289 4.95193 10.1659L5.44807 11.0341ZM1 13H0.5C0.5 13.1782 0.594879 13.343 0.749037 13.4325C0.903194 13.5219 1.09332 13.5226 1.24807 13.4341L1 13ZM1 3.4L0.751931 2.96588C0.596143 3.0549 0.5 3.22057 0.5 3.4H1ZM5.44807 1.43412C5.68783 1.29712 5.77113 0.991689 5.63412 0.751931C5.49712 0.512172 5.19169 0.428873 4.95193 0.565878L5.44807 1.43412ZM5.44807 10.1659C5.20831 10.0289 4.90288 10.1122 4.76588 10.3519C4.62887 10.5917 4.71217 10.8971 4.95193 11.0341L5.44807 10.1659ZM9.15193 13.4341C9.39169 13.5711 9.69712 13.4878 9.83412 13.2481C9.97113 13.0083 9.88783 12.7029 9.64807 12.5659L9.15193 13.4341ZM4.7 10.6C4.7 10.8761 4.92386 11.1 5.2 11.1C5.47614 11.1 5.7 10.8761 5.7 10.6H4.7ZM5.7 1C5.7 0.723858 5.47614 0.5 5.2 0.5C4.92386 0.5 4.7 0.723858 4.7 1H5.7ZM9.12265 12.584C8.89289 12.7372 8.8308 13.0476 8.98397 13.2774C9.13715 13.5071 9.44759 13.5692 9.67735 13.416L9.12265 12.584ZM13 10.6L13.2773 11.016C13.4164 10.9233 13.5 10.7672 13.5 10.6H13ZM13 1H13.5C13.5 0.815602 13.3985 0.646172 13.2359 0.559163C13.0733 0.472153 12.8761 0.481689 12.7226 0.583975L13 1ZM9.12265 2.98397C8.89289 3.13715 8.8308 3.44759 8.98397 3.67735C9.13715 3.90711 9.44759 3.9692 9.67735 3.81603L9.12265 2.98397ZM8.9 13C8.9 13.2761 9.12386 13.5 9.4 13.5C9.67614 13.5 9.9 13.2761 9.9 13H8.9ZM9.9 3.4C9.9 3.12386 9.67614 2.9 9.4 2.9C9.12386 2.9 8.9 3.12386 8.9 3.4H9.9ZM9.15193 3.83412C9.39169 3.97113 9.69712 3.88783 9.83412 3.64807C9.97113 3.40831 9.88783 3.10288 9.64807 2.96588L9.15193 3.83412ZM5.44807 0.565878C5.20831 0.428873 4.90288 0.512172 4.76588 0.751931C4.62887 0.991689 4.71217 1.29712 4.95193 1.43412L5.44807 0.565878ZM4.95193 10.1659L0.751931 12.5659L1.24807 13.4341L5.44807 11.0341L4.95193 10.1659ZM1.5 13V3.4H0.5V13H1.5ZM1.24807 3.83412L5.44807 1.43412L4.95193 0.565878L0.751931 2.96588L1.24807 3.83412ZM4.95193 11.0341L9.15193 13.4341L9.64807 12.5659L5.44807 10.1659L4.95193 11.0341ZM5.7 10.6V1H4.7V10.6H5.7ZM9.67735 13.416L13.2773 11.016L12.7226 10.184L9.12265 12.584L9.67735 13.416ZM13.5 10.6V1H12.5V10.6H13.5ZM12.7226 0.583975L9.12265 2.98397L9.67735 3.81603L13.2773 1.41603L12.7226 0.583975ZM9.9 13V3.4H8.9V13H9.9ZM9.64807 2.96588L5.44807 0.565878L4.95193 1.43412L9.15193 3.83412L9.64807 2.96588Z" fill="black"/>
</svg>
