<?xml version="1.0" encoding="UTF-8"?>
<svg width="14px" height="14px" viewBox="0 0 14 14" version="1.1" xmlns="http://www.w3.org/2000/svg" xmlns:xlink="http://www.w3.org/1999/xlink">
    <title>icon / common / badge / shape / 16_error_circle</title>
    <g id="01-기차예매메인" stroke="none" stroke-width="1" fill="none" fill-rule="evenodd">
        <g id="04_MA2000_장바구니" transform="translate(-37.000000, -680.000000)">
            <g id="list-/-train-/-cart-/-two_button" transform="translate(16.000000, 453.000000)">
                <g id="!" transform="translate(20.000000, 225.000000)">
                    <g id="icon-/-system-/-error-/-2_line/-16_red100" transform="translate(0.000000, 1.000000)">
                        <rect id="Rectangle" x="0" y="0" width="16" height="16"></rect>
                        <g id="icon-/-system-/-error-/-2_line/-16" transform="translate(1.000000, 1.000000)" fill="#DA1D1D" fill-rule="nonzero">
                            <path d="M7.52,8.48 L7.73,4.39 L7.78,3 L6.3,3 L6.35,4.39 L6.56,8.48 L7.52,8.48 Z M7.78,10.74 L7.78,9.32 L6.32,9.32 L6.32,10.74 L7.78,10.74 Z" id="!"></path>
                            <path d="M7,0 C10.8659932,0 14,3.13400675 14,7 C14,10.8659932 10.8659932,14 7,14 C3.13400675,14 0,10.8659932 0,7 C0,3.13400675 3.13400675,0 7,0 Z M7,1 C3.6862915,1 1,3.6862915 1,7 C1,10.3137085 3.6862915,13 7,13 C10.3137085,13 13,10.3137085 13,7 C13,3.6862915 10.3137085,1 7,1 Z" id="Oval"></path>
                        </g>
                    </g>
                </g>
            </g>
        </g>
    </g>
</svg>