<?xml version="1.0" encoding="UTF-8"?>
<svg width="14px" height="14px" viewBox="0 0 14 14" version="1.1" xmlns="http://www.w3.org/2000/svg" xmlns:xlink="http://www.w3.org/1999/xlink">
    <title>icon / system / error / 2_line/ ic_tooltip</title>
    <g id="06-공통" stroke="none" stroke-width="1" fill="none" fill-rule="evenodd">
        <g id="11_CO3000BS_인원선택(공통)" transform="translate(-85.000000, -382.000000)">
            <g id="cmp-/-train-/-modal-/-btmsheet-/-counter" transform="translate(0.000000, 140.000000)">
                <g id="리스트그룹" transform="translate(24.000000, 80.000000)">
                    <g id="list" transform="translate(0.000000, 158.000000)">
                        <g id="icon-/-system-/-error-/-2_line/-16" transform="translate(60.000000, 3.000000)">
                            <rect id="Rectangle" x="0" y="0" width="16" height="16"></rect>
                            <g transform="translate(1.000000, 1.000000)" fill="#000000" fill-rule="nonzero">
                                <path d="M7.52,8.48 L7.73,4.39 L7.78,3 L6.3,3 L6.35,4.39 L6.56,8.48 L7.52,8.48 Z M7.78,10.74 L7.78,9.32 L6.32,9.32 L6.32,10.74 L7.78,10.74 Z" id="!"></path>
                                <path d="M7,0 C10.8659932,0 14,3.13400675 14,7 C14,10.8659932 10.8659932,14 7,14 C3.13400675,14 0,10.8659932 0,7 C0,3.13400675 3.13400675,0 7,0 Z M7,1 C3.6862915,1 1,3.6862915 1,7 C1,10.3137085 3.6862915,13 7,13 C10.3137085,13 13,10.3137085 13,7 C13,3.6862915 10.3137085,1 7,1 Z" id="Oval"></path>
                            </g>
                        </g>
                    </g>
                </g>
            </g>
        </g>
    </g>
</svg>