<svg width="16" height="16" viewBox="0 0 16 16" xmlns="http://www.w3.org/2000/svg">
    <path d="M4.078 2.946c-.392 0-.728-.145-1.01-.434a1.438 1.438 0 0 1-.42-1.04c0-.403.14-.749.42-1.038C3.35.144 3.687 0 4.079 0c.393 0 .73.145 1.01.434.281.289.422.635.422 1.039 0 .403-.14.75-.422 1.039-.28.29-.617.434-1.01.434zm8.53 4.58c-.327 0-.605-.118-.833-.353a1.185 1.185 0 0 1-.344-.858c0-.336.115-.622.344-.857.228-.236.506-.353.833-.353.327 0 .604.117.833.353.229.235.343.521.343.857 0 .337-.114.622-.343.858a1.119 1.119 0 0 1-.833.353zM3.098 16a.398.398 0 0 1-.392-.404V10.15h-.98a.398.398 0 0 1-.393-.404v-4.64c0-.337.115-.622.343-.858.23-.235.507-.353.834-.353h2.98c.222 0 .428.06.618.182.19.12.336.289.441.504l2.667 5.61 1.431-1.575a.743.743 0 0 1 .284-.211.871.871 0 0 1 .344-.071h2.529c.235 0 .438.087.608.262.17.175.255.384.255.626v2.945a.398.398 0 0 1-.392.404h-.589v3.026a.398.398 0 0 1-.392.404h-1.96a.398.398 0 0 1-.393-.404v-5.71l-1.04 1.144a.387.387 0 0 1-.287.128h-.96a.391.391 0 0 1-.35-.224l-2.46-5.083v9.745A.398.398 0 0 1 5.45 16H3.098z" fill-rule="nonzero" fill="#000"/>
</svg>
