<svg width="16" height="16" viewBox="0 0 16 16" xmlns="http://www.w3.org/2000/svg">
    <g fill="none" fill-rule="evenodd">
        <path d="M0 0h16v16H0z"/>
        <circle fill="#888" fill-rule="nonzero" cx="5.102" cy="10.8" r="1"/>
        <path d="M14.31 12.993h-1.468l-.912-5.105a.69.69 0 0 0-.678-.59H7.366a4.024 4.024 0 0 0-2.264-.702c-.03 0-.055.008-.084.008l-.172-1.408H9.2a.695.695 0 0 0 .685-.702.695.695 0 0 0-.685-.701H4.679l-.266-2.177A.69.69 0 0 0 3.734 1H1.685A.695.695 0 0 0 1 1.702c0 .384.306.702.685.702h1.448l.54 4.465C2.115 7.462 1 9 1 10.8 1 13.118 2.838 15 5.102 15c2.03 0 3.711-1.52 4.04-3.502h1.99l.452 2.309a.69.69 0 0 0 .678.582h2.053a.695.695 0 0 0 .685-.702.702.702 0 0 0-.69-.694zm-9.208.607c-1.51 0-2.735-1.254-2.735-2.8 0-1.542 1.225-2.8 2.735-2.8 1.509 0 2.734 1.258 2.734 2.8 0 1.546-1.225 2.8-2.734 2.8z" fill="#888" fill-rule="nonzero"/>
    </g>
</svg>
