<svg width="16" height="16" viewBox="0 0 16 16" xmlns="http://www.w3.org/2000/svg">
    <g fill="none" fill-rule="evenodd">
        <path d="M0 0h16v16H0z"/>
        <path d="M5.296 3.672h-2.97c-.716 0-1.302.587-1.306 1.309L1 9.065a.554.554 0 0 0 .55.56h.002c.304 0 .55-.248.552-.554l.02-4.085v-.001c.001-.06.05-.11.11-.109.06 0 .11.05.11.11v9.347c0 .368.296.667.662.667a.665.665 0 0 0 .663-.667V9h.286v5.333c0 .368.296.667.662.667a.665.665 0 0 0 .662-.667c0-8.82-.011-3.776-.012-9.339a.116.116 0 0 1 .231-.01v.001l-.003 4.083c0 .307.246.556.551.556A.554.554 0 0 0 6.6 9.07l.004-4.085v-.003a1.314 1.314 0 0 0-1.307-1.31z" fill="#888" fill-rule="nonzero"/>
        <ellipse fill="#888" fill-rule="nonzero" cx="3.812" cy="2.152" rx="1.144" ry="1.152"/>
        <path d="M15.969 8.202c-.01-.029-1.014-2.913-1.172-3.376-.254-.745-.68-1.123-1.267-1.123h-1.909c-.586 0-1.013.378-1.267 1.123-.158.463-1.162 3.347-1.172 3.376-.1.288.05.603.336.704.286.1.598-.051.699-.339.032-.093.636-1.783.973-2.755-.035.29.066-.312-.783 4.106a.307.307 0 0 0 .298.365h.419v4.003a.66.66 0 0 0 .657.663.66.66 0 0 0 .658-.663v-4.003h.284v4.003a.66.66 0 0 0 .657.663.66.66 0 0 0 .658-.663v-4.003h.418a.306.306 0 0 0 .299-.365c-.842-4.378-.75-3.87-.778-4.106l.958 2.755c.1.288.413.44.698.339a.553.553 0 0 0 .336-.704z" fill="#888" fill-rule="nonzero"/>
        <ellipse fill="#888" fill-rule="nonzero" cx="12.581" cy="2.195" rx="1.136" ry="1.144"/>
        <path d="M8.024 1.742a.424.424 0 0 0-.422.426v11.664c0 .235.189.425.422.425.234 0 .423-.19.423-.425V2.168a.424.424 0 0 0-.423-.426z" fill="#888" fill-rule="nonzero"/>
    </g>
</svg>
