<svg width="20" height="20" viewBox="0 0 20 20" xmlns="http://www.w3.org/2000/svg">
    <g fill="none" fill-rule="evenodd">
        <path d="M0 0h20v20H0z"/>
        <path d="M10.6 5.333c0 .737-1.477 1.334-3.3 1.334-1.823 0-3.3-.597-3.3-1.334m6.6 0C10.6 4.597 9.123 4 7.3 4 5.477 4 4 4.597 4 5.333m6.6 0v2.972c-.733.244-1.2.614-1.2 1.028m-5.4-4v8c0 .737 1.477 1.334 3.3 1.334.798 0 1.53-.115 2.1-.305V9.333M4 8c0 .736 1.477 1.333 3.3 1.333.798 0 1.53-.114 2.1-.304M4 10.667C4 11.403 5.477 12 7.3 12c.798 0 1.53-.114 2.1-.305M16 9.333c0 .737-1.477 1.334-3.3 1.334-1.823 0-3.3-.597-3.3-1.334m6.6 0C16 8.597 14.523 8 12.7 8c-1.823 0-3.3.597-3.3 1.333m6.6 0v5.334C16 15.403 14.523 16 12.7 16c-1.823 0-3.3-.597-3.3-1.333V9.333M16 12c0 .736-1.477 1.333-3.3 1.333-1.823 0-3.3-.597-3.3-1.333" stroke="#494F60" stroke-width="1.2" stroke-linecap="round" stroke-linejoin="round"/>
    </g>
</svg>
