<svg width="28" height="29" viewBox="0 0 28 29" xmlns="http://www.w3.org/2000/svg">
    <path d="M7.7 5.701 6.183 7.764c-.3.409-.45.613-.447.784a.5.5 0 0 0 .187.38c.132.105.382.105.883.105h14.388c.501 0 .751 0 .884-.105a.5.5 0 0 0 .186-.38c.003-.171-.147-.375-.447-.784L20.3 5.701m-12.6 0c.171-.232.257-.349.365-.433a.965.965 0 0 1 .32-.163c.132-.038.274-.038.56-.038h10.11c.286 0 .428 0 .56.038.115.034.224.089.32.163.108.084.194.2.365.433m-12.6 0L5.872 8.187c-.23.314-.346.471-.428.644a2.011 2.011 0 0 0-.158.483c-.036.188-.036.385-.036.777v11.636c0 1.11 0 1.666.212 2.09.186.373.484.677.85.867.416.216.96.216 2.05.216h11.277c1.089 0 1.633 0 2.05-.216.365-.19.663-.494.85-.867.211-.424.211-.98.211-2.09V10.09c0-.392 0-.589-.036-.777a2.009 2.009 0 0 0-.158-.483c-.082-.173-.197-.33-.428-.644L20.3 5.701M17.889 13c0 1.052-.41 2.061-1.14 2.805A3.85 3.85 0 0 1 14 16.967a3.85 3.85 0 0 1-2.75-1.162A4.007 4.007 0 0 1 10.111 13" stroke="#000" stroke-linecap="round" stroke-linejoin="round" stroke-width="1.594" fill="none" fill-rule="evenodd"/>
</svg>
