<?xml version="1.0" encoding="UTF-8"?>
<svg width="46px" height="9px" viewBox="0 0 46 9" version="1.1" xmlns="http://www.w3.org/2000/svg" xmlns:xlink="http://www.w3.org/1999/xlink">
    <title>g55</title>
    <g id="01-기차예매메인" stroke="none" stroke-width="1" fill="none" fill-rule="evenodd" opacity="0.4">
        <g id="08_MA3000T_승차권보관함_받은선물" transform="translate(-169.000000, -805.000000)" fill="#CCCCCC" fill-rule="nonzero">
            <g id="etc-/-train-/-boarding_pass-/-gifted-/-srt" transform="translate(24.000000, 164.000000)">
                <g id="SRT_animation" transform="translate(0.000000, 634.000000)">
                    <g id="srt-bi" transform="translate(8.000000, 7.000000)">
                        <g id="SRT_logo" transform="translate(137.000000, 0.000000)">
                            <g id="g55" transform="translate(23.000000, 4.500000) scale(-1, 1) rotate(-180.000000) translate(-23.000000, -4.500000) ">
                                <polygon id="path22" points="20.0890233 6.09198739 22.8189695 6.09198739 20.341206 0.00402467281 17.635997 0.00402467281"></polygon>
                                <path d="M40.4927926,7.35292167 C40.9159029,7.35292167 41.1592386,7.46741942 41.3350622,7.74072423 L42.1144578,8.9986636 L34.4057932,8.9986636 C33.7730174,8.9986636 30.91363,9.00234965 30.1118162,6.67776124 L31.5902973,6.67776124 C31.854505,6.9630457 32.3939148,7.34040448 33.404707,7.35100185 L34.9417673,7.35292167 C34.9417673,7.35292167 33.3267159,3.33889635 32.6599263,1.69822273 C32.6403427,1.65022736 32.6031509,1.56437325 32.5602042,1.45747797 C32.4643473,1.2188834 32.1900042,1.0593852 31.7120939,1.05900123 L26.4373873,1.05900123 L25.1771611,3.49970003 C25.1771611,3.49970003 28.921507,4.60244158 29.1944759,6.55865594 C29.2469567,6.93501641 29.2129429,7.4872319 28.6917425,8.03921702 C28.6917425,8.03921702 27.8654491,9.02792158 24.8538587,8.9986636 L15.7774295,8.9986636 C15.7774295,8.9986636 9.72418616,9.20154962 12.1358119,4.60766347 C12.1358119,4.60766347 12.767557,3.64760255 12.7058856,2.87291893 C12.6522882,2.19921757 11.9927137,1.60783785 10.4618377,1.58487687 L5.5808659,1.58487687 C5.15191484,1.58487687 4.90737666,1.46784497 4.73103774,1.18632334 L4,0.00402467281 L10.7817902,0.00402467281 C10.7817902,0.00402467281 13.104001,0 14.2206137,0.74868239 C14.9781925,1.25666535 15.7529499,2.27270807 15.3318151,3.67163863 C15.3318151,3.67163863 15.211994,4.10835807 14.787853,4.85155673 C14.1390151,5.98854777 13.8126206,7.38648003 16.1715938,7.38617286 L24.673397,7.38302436 C24.673397,7.38302436 25.8820873,7.42380123 26.0802431,6.44738348 C26.0802431,6.44738348 26.3677279,5.33058889 24.5054756,4.50414707 C24.5054756,4.50414707 22.7943096,3.81915719 22.2343713,3.76248426 L23.9246652,0.616368762 C23.9246652,0.616368762 24.1990083,0.00402467281 25.1560313,0.00402467281 L32.6937683,0.00402467281 C32.6937683,0.00402467281 34.7516855,-0.180047158 35.4866743,1.94150164 L37.6694804,7.35292167 L40.4927926,7.35292167 Z" id="path34"></path>
                            </g>
                        </g>
                    </g>
                </g>
            </g>
        </g>
    </g>
</svg>