<svg width="45" height="11" viewBox="0 0 45 11" fill="none" xmlns="http://www.w3.org/2000/svg">
<path d="M18.9955 3.55424H22.2187L19.2933 10.9951H16.0994L18.9955 3.55424Z" fill="black"/>
<path d="M43.0854 2.0131C43.5849 2.0131 43.8722 1.87315 44.0798 1.53911L45 0.00163364H35.8987C35.1516 0.00163364 31.7757 -0.00287151 30.829 2.83829H32.5746C32.8865 2.48961 33.5234 2.02839 34.7168 2.01544L36.5315 2.0131C36.5315 2.0131 34.6247 6.91913 33.8375 8.92439C33.8143 8.98306 33.7704 9.08799 33.7197 9.21864C33.6066 9.51025 33.2826 9.7052 32.7184 9.70567H26.4908L25.0029 6.72259C25.0029 6.72259 29.4237 5.37479 29.746 2.98386C29.8079 2.52387 29.7678 1.84894 29.1524 1.17429C29.1524 1.17429 28.1768 -0.0341263 24.6212 0.00163364H13.9051C13.9051 0.00163364 6.75828 -0.246338 9.60558 5.36841C9.60558 5.36841 10.3515 6.54182 10.2786 7.48865C10.2154 8.31207 9.43663 9.03486 7.6292 9.06293H1.86646C1.36001 9.06293 1.0713 9.20597 0.863103 9.55005C0.863103 9.55014 0.863103 9.55014 0.863001 9.55014L0 10.9951H8.00695C8.00695 10.9951 10.7487 11.0001 12.067 10.0849C12.9615 9.46408 13.8762 8.22225 13.379 6.51244C13.379 6.51244 13.2375 5.97867 12.7367 5.07032C11.9707 3.68066 11.5853 1.97208 14.3704 1.97246L24.4081 1.9763C24.4081 1.9763 25.8352 1.92647 26.0691 3.11986C26.0691 3.11986 26.4086 4.48484 24.2099 5.49493C24.2099 5.49493 22.1896 6.33214 21.5285 6.40141L23.5241 10.2467C23.5241 10.2467 23.848 10.9951 24.978 10.9951H33.8774C33.8774 10.9951 36.3071 11.2201 37.1749 8.62705L39.752 2.0131H43.0854Z" fill="black"/>
</svg>
