<svg width="25" height="24" viewBox="0 0 25 24" fill="none" xmlns="http://www.w3.org/2000/svg">
<g id="icon_&#237;&#139;&#176;&#236;&#188;&#147;">
<g id="coupon">
<path fill-rule="evenodd" clip-rule="evenodd" d="M20.3598 6.3125H3.93442C3.68243 6.3125 3.47816 6.50838 3.47816 6.75V17.25C3.47816 17.4916 3.68243 17.6875 3.93442 17.6875H20.3598C20.6118 17.6875 20.8161 17.4916 20.8161 17.25V6.75C20.8161 6.50837 20.6118 6.3125 20.3598 6.3125ZM3.93442 5C2.92647 5 2.10938 5.7835 2.10938 6.75V17.25C2.10938 18.2165 2.92647 19 3.93442 19H20.3598C21.3677 19 22.1848 18.2165 22.1848 17.25V6.75C22.1848 5.7835 21.3677 5 20.3598 5H3.93442Z" fill="black"/>
<path d="M6.21572 5.875H7.5845V7.625H6.21572V5.875Z" fill="black"/>
<path d="M6.21572 16.375H7.5845V18.125H6.21572V16.375Z" fill="black"/>
<path d="M6.21572 13.75H7.5845V15.5H6.21572V13.75Z" fill="black"/>
<path d="M6.21572 11.125H7.5845V12.875H6.21572V11.125Z" fill="black"/>
<path d="M6.21572 8.5H7.5845V10.25H6.21572V8.5Z" fill="black"/>
</g>
<path id="Path" d="M11.1433 11.7583L13.3261 14L17.166 10" stroke="black" stroke-width="1.5" stroke-linecap="round" stroke-linejoin="round"/>
</g>
</svg>
