<svg width="14" height="14" viewBox="0 0 14 14" fill="none" xmlns="http://www.w3.org/2000/svg">
<rect width="14" height="14" fill="#B4B4B4"/>
<rect x="-40.5" y="-11.5" width="151" height="37" rx="1.5" stroke="#CCCCCC"/>
<path d="M7.7 3.4C7.7 3.0134 7.3866 2.7 7 2.7C6.6134 2.7 6.3 3.0134 6.3 3.4H7.7ZM7 7.00001H6.3C6.3 7.26515 6.4498 7.50753 6.68694 7.6261L7 7.00001ZM9.08694 8.82616C9.43272 8.99906 9.85319 8.85891 10.0261 8.51313C10.199 8.16734 10.0588 7.74687 9.71306 7.57397L9.08694 8.82616ZM6.3 3.4V7.00001H7.7V3.4H6.3ZM6.68694 7.6261L9.08694 8.82616L9.71306 7.57397L7.31306 6.37392L6.68694 7.6261ZM12.3 7.00001C12.3 9.92712 9.92715 12.3 7 12.3V13.7C10.7003 13.7 13.7 10.7003 13.7 7.00001H12.3ZM7 12.3C4.07289 12.3 1.7 9.92712 1.7 7.00001H0.3C0.3 10.7003 3.29969 13.7 7 13.7V12.3ZM1.7 7.00001C1.7 4.0729 4.07289 1.7 7 1.7V0.3C3.29969 0.3 0.3 3.2997 0.3 7.00001H1.7ZM7 1.7C9.92714 1.7 12.3 4.0729 12.3 7.00001H13.7C13.7 3.29971 10.7003 0.3 7 0.3V1.7Z" fill="#494F60"/>
</svg>
