<svg width="12" height="12" viewBox="0 0 12 12" xmlns="http://www.w3.org/2000/svg">
    <path d="M3.059 2.21c-.294 0-.547-.11-.758-.326a1.079 1.079 0 0 1-.316-.78c0-.302.106-.562.316-.779C2.512.108 2.765 0 3.06 0s.546.108.757.325c.211.217.316.477.316.78 0 .302-.105.562-.316.779-.21.217-.463.325-.757.325zm6.397 3.434a.839.839 0 0 1-.625-.264.889.889 0 0 1-.257-.644c0-.252.085-.466.257-.643a.839.839 0 0 1 .625-.265c.245 0 .453.089.625.265.171.177.257.391.257.643a.889.889 0 0 1-.257.644.839.839 0 0 1-.625.264zM2.324 12a.298.298 0 0 1-.295-.303V7.612h-.735A.298.298 0 0 1 1 7.309v-3.48c0-.253.086-.467.257-.644a.839.839 0 0 1 .625-.264h2.236c.166 0 .32.045.463.136a.91.91 0 0 1 .33.378l2 4.207 1.074-1.18a.557.557 0 0 1 .214-.16.653.653 0 0 1 .257-.052h1.897c.176 0 .328.065.456.196a.65.65 0 0 1 .191.47v2.209a.298.298 0 0 1-.294.302h-.441v2.27A.298.298 0 0 1 9.97 12H8.5a.298.298 0 0 1-.294-.303V7.415l-.78.857a.29.29 0 0 1-.215.096h-.72a.293.293 0 0 1-.263-.168L4.382 4.388v7.31a.298.298 0 0 1-.294.302H2.324z" fill-rule="nonzero" fill="#000"/>
</svg>
