<svg width="20" height="20" viewBox="0 0 20 20" fill="none" xmlns="http://www.w3.org/2000/svg">
<g clip-path="url(#clip0_36_1573)">
<path d="M8.21417 16.6668H3.92833C3.14 16.6668 2.5 16.0035 2.5 15.1852V4.81516C2.5 3.99683 3.14 3.3335 3.92833 3.3335H16.0717C16.86 3.3335 17.5 3.99683 17.5 4.81516V9.62516" stroke="black" stroke-width="1.25"/>
<path d="M11.7858 3.3335H16.0717C16.86 3.3335 17.5 3.99683 17.5 4.81516V15.1852C17.5 16.0035 16.86 16.6668 16.0717 16.6668H3.92833C3.14 16.6668 2.5 16.0035 2.5 15.1852V10.3752" stroke="black" stroke-width="1.25"/>
<path fill-rule="evenodd" clip-rule="evenodd" d="M6.25 8.75H7.08333V9.58333H6.25V8.75ZM9.58333 8.75H10.4167V9.58333H9.58333V8.75ZM12.9167 8.75H13.75V9.58333H12.9167V8.75ZM6.25 12.0833H7.08333V12.9167H6.25V12.0833ZM9.58333 12.0833H10.4167V12.9167H9.58333V12.0833ZM12.9167 12.0833H13.75V12.9167H12.9167V12.0833Z" fill="#D8D8D8" stroke="#979797" stroke-width="0.833333"/>
<path d="M7.85749 2.20258C7.85749 1.90665 7.61759 1.66675 7.32166 1.66675C7.02573 1.66675 6.78583 1.90665 6.78583 2.20258V5.29758C6.78583 5.59351 7.02573 5.83341 7.32166 5.83341C7.61759 5.83341 7.85749 5.59351 7.85749 5.29758V2.20258Z" fill="black"/>
<path d="M13.2142 2.20258C13.2142 1.90665 12.9743 1.66675 12.6784 1.66675C12.3824 1.66675 12.1425 1.90665 12.1425 2.20258V5.29758C12.1425 5.59351 12.3824 5.83341 12.6784 5.83341C12.9743 5.83341 13.2142 5.59351 13.2142 5.29758V2.20258Z" fill="black"/>
</g>
<defs>
<clipPath id="clip0_36_1573">
<rect width="20" height="20" fill="white"/>
</clipPath>
</defs>
</svg>
