<svg width="20" height="20" viewBox="0 0 20 20" fill="none" xmlns="http://www.w3.org/2000/svg">
<g id="search/event/filled/20">
<rect id="ic_24_icon copy 4" width="20" height="20" rx="2" fill="#A583F0"/>
<path id="evnt" fill-rule="evenodd" clip-rule="evenodd" d="M11.4599 3.93994C12.5299 3.93994 13.3999 4.80994 13.3999 5.87994C13.3999 6.45994 13.1499 6.97994 12.7399 7.33994H15.8299V8.30994H14.8599V14.6199C14.8599 14.8999 14.6399 15.1199 14.3599 15.1199H5.63992C5.35992 15.1199 5.13992 14.8999 5.13992 14.6199V8.30994H4.16992V7.33994H7.25992C6.85992 6.97994 6.59992 6.45994 6.59992 5.87994C6.59992 4.80994 7.46992 3.93994 8.53992 3.93994C9.11992 3.93994 9.63992 4.18994 9.99992 4.59994C10.3599 4.19994 10.8799 3.93994 11.4599 3.93994ZM10.4899 8.31994H9.51992V14.1499H10.4899V8.31994ZM8.54992 4.91994C8.00992 4.91994 7.57992 5.35994 7.57992 5.88994C7.57992 6.38994 7.95992 6.79994 8.43992 6.85994H8.54992H9.51992V5.88994C9.51992 5.38994 9.13992 4.97994 8.65992 4.91994H8.54992ZM11.4699 4.91994H11.3599C10.8799 4.97994 10.4999 5.38994 10.4999 5.88994V6.85994H11.5899C12.0699 6.79994 12.4499 6.38994 12.4499 5.88994C12.4499 5.34994 12.0099 4.91994 11.4799 4.91994H11.4699Z" fill="white"/>
</g>
</svg>
