<svg width="12" height="12" viewBox="0 0 12 12" xmlns="http://www.w3.org/2000/svg">
    <g fill-rule="nonzero" fill="#000">
        <path d="M5.48 2.365c.673 0 1.22-.53 1.22-1.182C6.7.529 6.153 0 5.48 0c-.675 0-1.221.53-1.221 1.183s.546 1.182 1.22 1.182zM7.366 9.066c-.325 1.091-1.363 1.892-2.592 1.892-1.489 0-2.7-1.172-2.7-2.614 0-1.067.665-1.986 1.614-2.392V4.844C2.135 5.297 1 6.694 1 8.344 1 10.36 2.693 12 4.774 12a3.785 3.785 0 0 0 3.423-2.126l-.426-.811-.405.003z"/>
        <path d="M10.922 10.47 9.287 7.356a.719.719 0 0 0-.639-.38H6.554v-.463h1.802c.18 0 .332-.09.43-.222a.498.498 0 0 0 .108-.299.53.53 0 0 0-.538-.52H6.554v-1.57c0-.43-.33-1.041-1.074-1.041-.594 0-1.075.466-1.075 1.042v3.4c0 .586.49 1.062 1.096 1.062H8.21l1.435 2.734a.729.729 0 0 0 .964.304.683.683 0 0 0 .314-.933z"/>
    </g>
</svg>
