<svg width="20" height="20" viewBox="0 0 20 20" xmlns="http://www.w3.org/2000/svg">
    <g stroke="#000" stroke-width="1.2" fill="none" fill-rule="evenodd">
        <path d="m5.685 8.754.097-1.76a4.225 4.225 0 0 1 8.436 0l.097 1.76a5.71 5.71 0 0 0 1.907 3.956.905.905 0 0 1-.6 1.58H4.378a.905.905 0 0 1-.601-1.58 5.71 5.71 0 0 0 1.907-3.956z" stroke-linejoin="round"/>
        <path d="M12.178 14.29c.029.146.044.297.044.452C12.222 15.989 11.227 17 10 17c-1.227 0-2.222-1.011-2.222-2.258 0-.155.015-.306.044-.452z"/>
    </g>
</svg>
