<svg width="12" height="12" viewBox="0 0 12 12" xmlns="http://www.w3.org/2000/svg">
    <path d="M8.24 2.16a1.004 1.004 0 0 0-.94-.66h-.8a.5.5 0 1 0 0 1h.8l.73 3.21H5.625l-.18-.788H5.5a.5.5 0 1 0 0-1H4a.5.5 0 0 0 0 1h.375l.91 2.788H4.95a2.465 2.465 0 0 0-2.325-1.995C1.225 5.645 0 6.81 0 8.21c0 1.4 1.1 2.5 2.5 2.5 1.23 0 2.225-.845 2.45-2h2.1a2.465 2.465 0 0 0 2.325 1.995c1.4.065 2.625-1.095 2.625-2.5 0-1.4-1.1-2.5-2.5-2.5h-.41L8.24 2.16zM3.91 8.71c-.2.585-.745 1-1.41 1-.84 0-1.5-.66-1.5-1.5s.66-1.5 1.5-1.5c.665 0 1.21.415 1.41 1H3a.5.5 0 1 0 0 1h.91zm3.14-1h-.7l-.365-1H7.5c-.22.29-.38.625-.45 1zm2.45 2c-.84 0-1.5-.66-1.5-1.5 0-.465.205-.865.525-1.14l.31.851a.5.5 0 0 0 .94-.341l-.315-.865c.015 0 .03-.005.045-.005.84 0 1.5.66 1.5 1.5s-.665 1.5-1.505 1.5z" fill="#000" fill-rule="nonzero"/>
</svg>
