<svg width="80" height="80" viewBox="0 0 80 80" fill="none" xmlns="http://www.w3.org/2000/svg">
<g clip-path="url(#clip0_184_8928)">
<path d="M40 70C56.5685 70 70 56.5685 70 40C70 23.4315 56.5685 10 40 10C23.4315 10 10 23.4315 10 40C10 56.5685 23.4315 70 40 70Z" fill="#F8F8F8"/>
<path d="M40 46C39.4696 46 38.9609 45.7893 38.5858 45.4142C38.2107 45.0391 38 44.5304 38 44V30C38 29.4696 38.2107 28.9609 38.5858 28.5858C38.9609 28.2107 39.4696 28 40 28C40.5304 28 41.0391 28.2107 41.4142 28.5858C41.7893 28.9609 42 29.4696 42 30V44C42 44.5304 41.7893 45.0391 41.4142 45.4142C41.0391 45.7893 40.5304 46 40 46Z" fill="#B1B7C4"/>
<path d="M40 52.833C41.1046 52.833 42 51.9376 42 50.833C42 49.7284 41.1046 48.833 40 48.833C38.8954 48.833 38 49.7284 38 50.833C38 51.9376 38.8954 52.833 40 52.833Z" fill="#B1B7C4"/>
</g>
<defs>
<clipPath id="clip0_184_8928">
<rect width="80" height="80" fill="white"/>
</clipPath>
</defs>
</svg>
