<svg width="16" height="16" viewBox="0 0 16 16" fill="none" xmlns="http://www.w3.org/2000/svg">
<path d="M7.99998 1.3335C11.682 1.3335 14.6666 4.31816 14.6666 8.00016C14.6666 8.6515 14.5733 9.28083 14.3993 9.87616C14.004 11.221 13.1953 12.4073 12.088 13.2668C12.0015 13.3312 11.9114 13.3904 11.818 13.4442L11.5713 13.5842L11.2886 13.7328L10.986 13.8842L10.6786 14.0315L10.5273 14.1015L10.2406 14.2302L10.1086 14.2868L9.87731 14.3815C9.77398 14.4215 9.69131 14.4508 9.63865 14.4642C9.10291 14.5992 8.55248 14.6673 7.99998 14.6668C4.31798 14.6668 1.33331 11.6822 1.33331 8.00016C1.33331 4.31816 4.31798 1.3335 7.99998 1.3335ZM7.99998 2.3335C7.19699 2.33423 6.40333 2.50561 5.67158 2.83628C4.93984 3.16695 4.28673 3.64937 3.75554 4.25155C3.22435 4.85373 2.8272 5.56193 2.59042 6.32922C2.35364 7.09651 2.28264 7.90535 2.38211 8.70216C2.48159 9.49896 2.74927 10.2655 3.16743 10.951C3.58558 11.6366 4.14465 12.2254 4.80759 12.6785C5.47053 13.1316 6.22219 13.4386 7.01277 13.5793C7.80335 13.7199 8.61479 13.6909 9.39331 13.4942C9.42465 13.4868 9.47065 13.4708 9.52865 13.4482L9.73531 13.3628L9.99331 13.2482L10.2826 13.1135L10.582 12.9688L10.8713 12.8228L11.0053 12.7528L11.2413 12.6235C11.346 12.5642 11.4273 12.5135 11.4746 12.4768C12.4157 11.7464 13.1031 10.7384 13.4393 9.5955C13.5893 9.08216 13.6666 8.54683 13.6666 8.00016C13.6666 6.49727 13.0696 5.05593 12.0069 3.99322C10.9442 2.93052 9.50287 2.3335 7.99998 2.3335Z" fill="black"/>
<path d="M8 3.8335C7.87917 3.8335 7.76244 3.87726 7.67138 3.95667C7.58032 4.03609 7.5211 4.14579 7.50467 4.2655L7.5 4.3335V7.7935C7.50002 7.86153 7.51393 7.92884 7.54086 7.99132C7.5678 8.05379 7.60721 8.11011 7.65667 8.15683L7.71 8.20016L10.562 10.2375C10.6647 10.3111 10.7915 10.3432 10.9168 10.3271C11.0422 10.311 11.1568 10.2481 11.2377 10.151C11.3185 10.0538 11.3596 9.92968 11.3526 9.8035C11.3456 9.67731 11.2911 9.55845 11.2 9.47083L11.1433 9.4235L8.5 7.5355V4.3335C8.49999 4.21267 8.45624 4.09593 8.37682 4.00488C8.29741 3.91382 8.1877 3.85459 8.068 3.83816L8 3.8335Z" fill="black"/>
</svg>
