<svg width="24" height="24" viewBox="0 0 24 24" fill="none" xmlns="http://www.w3.org/2000/svg">
<g id="noun-map-pointer-821438 1">
<g id="Group 222">
<path id="Vector" d="M11.6864 21.1392L12.32 21.8592L12.9536 21.1392C13.0208 21.0624 14.6336 19.2192 16.2488 16.8912C18.5024 13.68 19.6424 11.2056 19.6424 9.54477C19.6674 8.56772 19.4966 7.59555 19.14 6.68557C18.7834 5.77558 18.2482 4.9462 17.566 4.2463C16.8838 3.54641 16.0684 2.99017 15.1678 2.61037C14.2672 2.23058 13.2998 2.03491 12.3224 2.03491C11.345 2.03491 10.3776 2.23058 9.47699 2.61037C8.57644 2.99017 7.76102 3.54641 7.07882 4.2463C6.39662 4.9462 5.86144 5.77558 5.50483 6.68557C5.14821 7.59555 4.97738 8.56772 5.0024 9.54477C4.9952 11.2056 6.1304 13.68 8.3912 16.8912C10.0184 19.212 11.6192 21.06 11.6864 21.1392ZM12.32 3.89997C13.8163 3.90188 15.2507 4.49729 16.3085 5.55555C17.3663 6.61381 17.9611 8.04848 17.9624 9.54477C17.9624 11.9448 14.336 16.8384 12.32 19.284C11.708 18.5376 10.7336 17.3112 9.764 15.924C7.772 13.08 6.6752 10.8144 6.6752 9.54237C6.67711 8.04608 7.27251 6.61166 8.33077 5.55385C9.38904 4.49604 10.8237 3.90124 12.32 3.89997Z" fill="#CCCCCC"/>
<path id="Vector_2" d="M14.3 9.59995C14.3 10.6493 13.4493 11.5 12.4 11.5C11.3507 11.5 10.5 10.6493 10.5 9.59995C10.5 8.55061 11.3507 7.69995 12.4 7.69995C13.4493 7.69995 14.3 8.55061 14.3 9.59995Z" fill="#CCCCCC" stroke="#CCCCCC"/>
</g>
</g>
</svg>
