<svg width="80" height="80" viewBox="0 0 80 80" fill="none" xmlns="http://www.w3.org/2000/svg">
<circle cx="40" cy="40" r="29" stroke="#DDDDDD" stroke-width="2"/>
<path d="M52.8713 42.25L52.8813 42.1788V42.1813C52.9113 41.9588 52.9362 41.735 52.9537 41.51C52.9837 41.1325 52.7175 40.4963 52.0175 40.4963C51.5288 40.4963 51.1237 40.8713 51.0837 41.3588C51.0612 41.635 51.0287 41.9088 50.9862 42.1788C50.18 47.2425 45.7887 51.12 40.4975 51.12C36.7013 51.12 33.3675 49.1237 31.49 46.1262L33.9788 46.12C34.4963 46.12 34.9163 45.7 34.9163 45.1825C34.9163 44.665 34.4963 44.245 33.9788 44.245H28.9375C28.42 44.245 28 44.665 28 45.1825V50.2437C28 50.7612 28.42 51.1812 28.9375 51.1812C29.455 51.1812 29.875 50.7625 29.875 50.2437L29.8788 47.0875C32.085 50.6325 36.0175 52.995 40.4975 52.995C46.8 52.995 52.0187 48.3188 52.8713 42.25ZM28.1537 38.5325L28.1425 38.6025V38.6C28.0988 38.8913 28.0638 39.1863 28.04 39.485C28.01 39.8625 28.2762 40.4988 28.9762 40.4988C29.465 40.4988 29.87 40.1237 29.91 39.6362C29.9375 39.2862 29.9825 38.9413 30.0438 38.6025C30.9388 33.6425 35.28 29.875 40.4963 29.875C44.2925 29.875 47.6262 31.8712 49.5037 34.8687L47.015 34.875C46.4975 34.875 46.0775 35.295 46.0775 35.8125C46.0775 36.33 46.4975 36.75 47.015 36.75H52.0563C52.5738 36.75 52.9938 36.33 52.9938 35.8125V30.7513C52.9938 30.2338 52.5738 29.8138 52.0563 29.8138C51.5388 29.8138 51.1188 30.2325 51.1188 30.7513L51.115 33.9075C48.9088 30.3625 44.9762 28 40.4963 28C34.2662 28 29.0962 32.5675 28.1537 38.5325Z" fill="#476EFF"/>
</svg>
