<svg width="12" height="12" viewBox="0 0 12 12" xmlns="http://www.w3.org/2000/svg">
    <g fill="#000" fill-rule="evenodd">
        <path d="M10.143 7.811a.44.44 0 0 0-.439-.44h-.442v-1.07a.791.791 0 0 0-.791-.792h-.285l.34-1.465a1.145 1.145 0 0 0-.097-2.284 1.145 1.145 0 0 0-.588 2.124L7.464 5.51H4.769V3.887H3.03V7.37h-.792a.44.44 0 0 0-.439.44v.678h8.345V7.81z" fill-rule="nonzero"/>
        <path d="M3.028 3.169h2.953c.194 0 .352.158.352.352v.023a.352.352 0 0 1-.352.353H3.028v-.728z"/>
        <path d="M10.143 9.374A1.362 1.362 0 0 0 10.641 12a1.36 1.36 0 1 0-.498-2.626zM3.394 10.31h5.212c.07-.431.273-.819.566-1.117H2.828c.293.298.497.686.566 1.117zM1.798 9.352A1.36 1.36 0 1 0 1.358 12a1.362 1.362 0 0 0 .44-2.648zM3.715 0h-.568a.117.117 0 0 0-.118.117v3.065h1.738l.002-.001V1.056C4.77.473 4.297 0 3.715 0zM6.276 3.534a.353.353 0 0 0-.352-.353H4.769v.706h1.155a.353.353 0 0 0 .352-.353z" fill-rule="nonzero"/>
    </g>
</svg>
