<svg width="20" height="20" viewBox="0 0 20 20" fill="none" xmlns="http://www.w3.org/2000/svg">
<g id="user-profile-01">
<path id="Vector" fill-rule="evenodd" clip-rule="evenodd" d="M5.90788 7.77142C7.62416 8.28681 8.93274 9.68224 9.33694 11.4281L10.0585 14.5447C10.1145 14.7866 10.3396 14.9508 10.5871 14.9302L15.873 14.4897C16.0334 14.4763 16.1948 14.4829 16.3535 14.5092C17.4143 14.6853 18.1315 15.6881 17.9554 16.7488L17.9287 16.9097C17.7285 18.1159 16.6852 19.0003 15.4625 19.0003H7.53847C6.88723 19.0003 6.3104 18.5801 6.11072 17.9602L3.59018 10.1357C3.47398 9.77502 3.47012 9.38752 3.57912 9.02456C3.87614 8.03545 4.91876 7.4744 5.90788 7.77142ZM4.53687 9.31217C4.48616 9.48102 4.48795 9.6613 4.54201 9.82912L7.06255 17.6536C7.12911 17.8602 7.32139 18.0003 7.53847 18.0003H15.4625C16.1961 18.0003 16.8221 17.4697 16.9422 16.7459L16.9689 16.5851C17.0546 16.0691 16.7057 15.5814 16.1898 15.4957C16.1126 15.4829 16.034 15.4797 15.956 15.4862L10.6702 15.9267C9.92769 15.9886 9.25232 15.4961 9.08427 14.7702L8.36271 11.6536C8.03945 10.2574 6.99289 9.14136 5.62027 8.72917C5.16011 8.59099 4.67505 8.852 4.53687 9.31217ZM6.12556 4.26184C6.14548 4.31198 6.16337 4.3629 6.17918 4.41448L6.60715 5.81088C6.76898 6.33892 6.47211 6.89817 5.94407 7.06001C5.93799 7.06187 5.93188 7.06368 5.92576 7.06543L3.86381 7.65456C3.37971 7.79287 2.86827 7.54972 2.66994 7.08695L2.15929 5.89544C1.72418 4.88018 2.19449 3.70442 3.20974 3.26931C3.22604 3.26233 3.24242 3.25556 3.25889 3.24902L3.52828 3.14195C4.55475 2.73398 5.71759 3.23538 6.12556 4.26184ZM3.89763 4.07124L3.62824 4.17831C3.61591 4.18327 3.61591 4.18327 3.60366 4.18846C3.09603 4.40601 2.86088 4.99389 3.07844 5.50152L3.58909 6.69303L5.65104 6.1039L5.22308 4.70751C5.21517 4.68172 5.20623 4.65626 5.19626 4.63119C4.99228 4.11795 4.41086 3.86726 3.89763 4.07124Z" fill="black"/>
</g>
</svg>
