<?xml version="1.0" encoding="UTF-8"?>
<svg width="14px" height="36px" viewBox="0 0 14 36" version="1.1" xmlns="http://www.w3.org/2000/svg" xmlns:xlink="http://www.w3.org/1999/xlink">
    <title>Oval</title>
    <g id="01-기차예매메인" stroke="none" stroke-width="1" fill="none" fill-rule="evenodd">
        <g id="08_MA3000T_승차권보관함_받은선물" transform="translate(-322.000000, -334.000000)" fill="#FFFFFF">
            <rect x="0" y="0" width="360" height="862"></rect>
            <g id="etc-/-train-/-boarding_pass-/-gifted-/-srt" transform="translate(24.000000, 164.000000)" stroke="#EAEAEA">
                <path d="M300,0.5 C303.175637,0.5 306.050637,1.78718134 308.131728,3.86827202 C310.212819,5.94936269 311.5,8.82436269 311.5,12.0000006 L311.5002,170.331386 C307.748888,171.497851 304.509195,173.825904 302.20231,176.895171 C299.877736,179.987973 298.5,183.833075 298.5,188 C298.5,192.166925 299.877736,196.012027 302.20231,199.104829 C304.509195,202.174096 307.748889,204.502149 311.5002,205.668614 L311.5,646 C311.5,649.175637 310.212819,652.050637 308.131728,654.131728 C306.050637,656.212819 303.175637,657.5 300,657.5 L12,657.5 C8.82436269,657.5 5.94936269,656.212819 3.86827202,654.131728 C1.78718134,652.050637 0.5,649.175637 0.5,646.000001 L0.500508149,205.668394 C4.25164345,204.501817 7.49116472,202.173749 9.79791884,199.104525 C12.122354,196.011775 13.5,192.166788 13.5,188 C13.5,183.833212 12.122354,179.988225 9.79791884,176.895475 C7.49116456,173.826251 4.25164301,171.498183 0.500507386,170.331606 L0.5,12 C0.5,8.82436269 1.78718134,5.94936269 3.86827202,3.86827202 C5.94936269,1.78718134 8.82436269,0.5 12,0.5 Z" id="ticket_shape"></path>
            </g>
        </g>
    </g>
</svg>